<svg xmlns="http://www.w3.org/2000/svg" width="32" height="32" viewBox="0 0 32 32" shape-rendering="crispEdges"><rect x="12" y="3" width="8" height="1" fill="#22172b"/><rect x="10" y="4" width="3" height="1" fill="#22172b"/><rect x="13" y="4" width="6" height="1" fill="#e65755"/><rect x="19" y="4" width="3" height="1" fill="#22172b"/><rect x="8" y="5" width="2" height="1" fill="#22172b"/><rect x="10" y="5" width="12" height="1" fill="#e65755"/><rect x="22" y="5" width="2" height="1" fill="#22172b"/><rect x="7" y="6" width="2" height="1" fill="#22172b"/><rect x="9" y="6" width="14" height="1" fill="#e65755"/><rect x="23" y="6" width="2" height="1" fill="#22172b"/><rect x="6" y="7" width="2" height="1" fill="#22172b"/><rect x="8" y="7" width="16" height="1" fill="#e65755"/><rect x="24" y="7" width="2" height="1" fill="#22172b"/><rect x="5" y="8" width="2" height="1" fill="#22172b"/><rect x="7" y="8" width="13" height="1" fill="#e65755"/><rect x="20" y="8" width="3" height="1" fill="#a93647"/><rect x="23" y="8" width="2" height="1" fill="#e65755"/><rect x="25" y="8" width="2" height="1" fill="#22172b"/><rect x="5" y="9" width="1" height="1" fill="#22172b"/><rect x="6" y="9" width="1" height="1" fill="#ffd59d"/><rect x="7" y="9" width="12" height="1" fill="#e65755"/><rect x="19" y="9" width="4" height="1" fill="#a93647"/><rect x="23" y="9" width="2" height="1" fill="#e65755"/><rect x="25" y="9" width="1" height="1" fill="#a93647"/><rect x="26" y="9" width="1" height="1" fill="#22172b"/><rect x="4" y="10" width="1" height="1" fill="#22172b"/><rect x="5" y="10" width="2" height="1" fill="#ffd59d"/><rect x="7" y="10" width="4" height="1" fill="#e65755"/><rect x="11" y="10" width="2" height="1" fill="#542739"/><rect x="13" y="10" width="6" height="1" fill="#e65755"/><rect x="19" y="10" width="4" height="1" fill="#a93647"/><rect x="23" y="10" width="3" height="1" fill="#e65755"/><rect x="26" y="10" width="1" height="1" fill="#a93647"/><rect x="27" y="10" width="1" height="1" fill="#22172b"/><rect x="4" y="11" width="1" height="1" fill="#22172b"/><rect x="5" y="11" width="1" height="1" fill="#ffd59d"/><rect x="6" y="11" width="6" height="1" fill="#e65755"/><rect x="12" y="11" width="2" height="1" fill="#542739"/><rect x="14" y="11" width="7" height="1" fill="#e65755"/><rect x="21" y="11" width="1" height="1" fill="#a93647"/><rect x="22" y="11" width="4" height="1" fill="#e65755"/><rect x="26" y="11" width="1" height="1" fill="#a93647"/><rect x="27" y="11" width="1" height="1" fill="#22172b"/><rect x="3" y="12" width="2" height="1" fill="#22172b"/><rect x="5" y="12" width="1" height="1" fill="#ffd59d"/><rect x="6" y="12" width="7" height="1" fill="#e65755"/><rect x="13" y="12" width="2" height="1" fill="#542739"/><rect x="15" y="12" width="11" height="1" fill="#e65755"/><rect x="26" y="12" width="1" height="1" fill="#a93647"/><rect x="27" y="12" width="2" height="1" fill="#22172b"/><rect x="3" y="13" width="1" height="1" fill="#22172b"/><rect x="4" y="13" width="2" height="1" fill="#ffd59d"/><rect x="6" y="13" width="20" height="1" fill="#e65755"/><rect x="26" y="13" width="2" height="1" fill="#a93647"/><rect x="28" y="13" width="1" height="1" fill="#22172b"/><rect x="3" y="14" width="1" height="1" fill="#22172b"/><rect x="4" y="14" width="2" height="1" fill="#ffd59d"/><rect x="6" y="14" width="20" height="1" fill="#e65755"/><rect x="26" y="14" width="2" height="1" fill="#a93647"/><rect x="28" y="14" width="1" height="1" fill="#22172b"/><rect x="3" y="15" width="1" height="1" fill="#22172b"/><rect x="4" y="15" width="2" height="1" fill="#ffd59d"/><rect x="6" y="15" width="20" height="1" fill="#e65755"/><rect x="26" y="15" width="2" height="1" fill="#a93647"/><rect x="28" y="15" width="1" height="1" fill="#22172b"/><rect x="3" y="16" width="1" height="1" fill="#22172b"/><rect x="4" y="16" width="2" height="1" fill="#ffd59d"/><rect x="6" y="16" width="19" height="1" fill="#e65755"/><rect x="25" y="16" width="3" height="1" fill="#a93647"/><rect x="28" y="16" width="1" height="1" fill="#22172b"/><rect x="3" y="17" width="1" height="1" fill="#22172b"/><rect x="4" y="17" width="2" height="1" fill="#ffd59d"/><rect x="6" y="17" width="19" height="1" fill="#e65755"/><rect x="25" y="17" width="2" height="1" fill="#a93647"/><rect x="27" y="17" width="1" height="1" fill="#542739"/><rect x="28" y="17" width="1" height="1" fill="#22172b"/><rect x="3" y="18" width="1" height="1" fill="#22172b"/><rect x="4" y="18" width="3" height="1" fill="#ffd59d"/><rect x="7" y="18" width="17" height="1" fill="#e65755"/><rect x="24" y="18" width="3" height="1" fill="#a93647"/><rect x="27" y="18" width="1" height="1" fill="#542739"/><rect x="28" y="18" width="1" height="1" fill="#22172b"/><rect x="3" y="19" width="2" height="1" fill="#22172b"/><rect x="5" y="19" width="2" height="1" fill="#ffd59d"/><rect x="7" y="19" width="11" height="1" fill="#e65755"/><rect x="18" y="19" width="4" height="1" fill="#542739"/><rect x="22" y="19" width="2" height="1" fill="#e65755"/><rect x="24" y="19" width="2" height="1" fill="#a93647"/><rect x="26" y="19" width="1" height="1" fill="#542739"/><rect x="27" y="19" width="2" height="1" fill="#22172b"/><rect x="4" y="20" width="1" height="1" fill="#22172b"/><rect x="5" y="20" width="2" height="1" fill="#ffd59d"/><rect x="7" y="20" width="10" height="1" fill="#e65755"/><rect x="17" y="20" width="6" height="1" fill="#542739"/><rect x="23" y="20" width="3" height="1" fill="#a93647"/><rect x="26" y="20" width="1" height="1" fill="#ef8c66"/><rect x="27" y="20" width="1" height="1" fill="#22172b"/><rect x="4" y="21" width="1" height="1" fill="#22172b"/><rect x="5" y="21" width="2" height="1" fill="#ffd59d"/><rect x="7" y="21" width="9" height="1" fill="#e65755"/><rect x="16" y="21" width="2" height="1" fill="#542739"/><rect x="18" y="21" width="3" height="1" fill="#e65755"/><rect x="21" y="21" width="1" height="1" fill="#a93647"/><rect x="22" y="21" width="1" height="1" fill="#542739"/><rect x="23" y="21" width="2" height="1" fill="#a93647"/><rect x="25" y="21" width="2" height="1" fill="#ef8c66"/><rect x="27" y="21" width="1" height="1" fill="#22172b"/><rect x="5" y="22" width="1" height="1" fill="#22172b"/><rect x="6" y="22" width="2" height="1" fill="#ffd59d"/><rect x="8" y="22" width="8" height="1" fill="#e65755"/><rect x="16" y="22" width="2" height="1" fill="#542739"/><rect x="18" y="22" width="1" height="1" fill="#e65755"/><rect x="19" y="22" width="5" height="1" fill="#a93647"/><rect x="24" y="22" width="2" height="1" fill="#ef8c66"/><rect x="26" y="22" width="1" height="1" fill="#22172b"/><rect x="5" y="23" width="2" height="1" fill="#22172b"/><rect x="7" y="23" width="1" height="1" fill="#ffd59d"/><rect x="8" y="23" width="5" height="1" fill="#e65755"/><rect x="13" y="23" width="3" height="1" fill="#a93647"/><rect x="16" y="23" width="2" height="1" fill="#542739"/><rect x="18" y="23" width="4" height="1" fill="#a93647"/><rect x="22" y="23" width="3" height="1" fill="#ef8c66"/><rect x="25" y="23" width="2" height="1" fill="#22172b"/><rect x="6" y="24" width="2" height="1" fill="#22172b"/><rect x="8" y="24" width="1" height="1" fill="#ffd59d"/><rect x="9" y="24" width="5" height="1" fill="#e65755"/><rect x="14" y="24" width="2" height="1" fill="#a93647"/><rect x="16" y="24" width="2" height="1" fill="#542739"/><rect x="18" y="24" width="3" height="1" fill="#a93647"/><rect x="21" y="24" width="3" height="1" fill="#ef8c66"/><rect x="24" y="24" width="2" height="1" fill="#22172b"/><rect x="7" y="25" width="2" height="1" fill="#22172b"/><rect x="9" y="25" width="5" height="1" fill="#e65755"/><rect x="14" y="25" width="1" height="1" fill="#ef8c66"/><rect x="15" y="25" width="3" height="1" fill="#542739"/><rect x="18" y="25" width="5" height="1" fill="#ef8c66"/><rect x="23" y="25" width="2" height="1" fill="#22172b"/><rect x="8" y="26" width="2" height="1" fill="#22172b"/><rect x="10" y="26" width="7" height="1" fill="#e65755"/><rect x="17" y="26" width="5" height="1" fill="#ef8c66"/><rect x="22" y="26" width="2" height="1" fill="#22172b"/><rect x="10" y="27" width="3" height="1" fill="#22172b"/><rect x="13" y="27" width="6" height="1" fill="#e65755"/><rect x="19" y="27" width="3" height="1" fill="#22172b"/><rect x="12" y="28" width="8" height="1" fill="#22172b"/></svg>