<svg xmlns="http://www.w3.org/2000/svg" width="32" height="32" viewBox="0 0 32 32" shape-rendering="crispEdges"><rect x="13" y="2" width="6" height="1" fill="#252931"/><rect x="10" y="3" width="12" height="1" fill="#252931"/><rect x="8" y="4" width="2" height="1" fill="#252931"/><rect x="10" y="4" width="1" height="1" fill="#ece9df"/><rect x="11" y="4" width="10" height="1" fill="#252931"/><rect x="21" y="4" width="1" height="1" fill="#555c65"/><rect x="22" y="4" width="2" height="1" fill="#252931"/><rect x="6" y="5" width="2" height="1" fill="#252931"/><rect x="8" y="5" width="1" height="1" fill="#ece9df"/><rect x="9" y="5" width="4" height="1" fill="#b4bbc2"/><rect x="13" y="5" width="6" height="1" fill="#252931"/><rect x="19" y="5" width="4" height="1" fill="#b4bbc2"/><rect x="23" y="5" width="1" height="1" fill="#555c65"/><rect x="24" y="5" width="2" height="1" fill="#252931"/><rect x="5" y="6" width="2" height="1" fill="#252931"/><rect x="7" y="6" width="1" height="1" fill="#ece9df"/><rect x="8" y="6" width="1" height="1" fill="#b4bbc2"/><rect x="9" y="6" width="6" height="1" fill="#fffaf0"/><rect x="15" y="6" width="2" height="1" fill="#b4bbc2"/><rect x="17" y="6" width="5" height="1" fill="#ece9df"/><rect x="22" y="6" width="1" height="1" fill="#555c65"/><rect x="23" y="6" width="1" height="1" fill="#b4bbc2"/><rect x="24" y="6" width="1" height="1" fill="#555c65"/><rect x="25" y="6" width="2" height="1" fill="#252931"/><rect x="4" y="7" width="2" height="1" fill="#252931"/><rect x="6" y="7" width="1" height="1" fill="#fffaf0"/><rect x="7" y="7" width="1" height="1" fill="#b4bbc2"/><rect x="8" y="7" width="11" height="1" fill="#fffaf0"/><rect x="19" y="7" width="4" height="1" fill="#ece9df"/><rect x="23" y="7" width="1" height="1" fill="#555c65"/><rect x="24" y="7" width="1" height="1" fill="#b4bbc2"/><rect x="25" y="7" width="1" height="1" fill="#555c65"/><rect x="26" y="7" width="2" height="1" fill="#252931"/><rect x="3" y="8" width="2" height="1" fill="#252931"/><rect x="5" y="8" width="1" height="1" fill="#555c65"/><rect x="6" y="8" width="1" height="1" fill="#b4bbc2"/><rect x="7" y="8" width="1" height="1" fill="#fffaf0"/><rect x="8" y="8" width="1" height="1" fill="#fffdf4"/><rect x="9" y="8" width="12" height="1" fill="#fffaf0"/><rect x="21" y="8" width="3" height="1" fill="#ece9df"/><rect x="24" y="8" width="1" height="1" fill="#555c65"/><rect x="25" y="8" width="1" height="1" fill="#b4bbc2"/><rect x="26" y="8" width="3" height="1" fill="#252931"/><rect x="3" y="9" width="1" height="1" fill="#252931"/><rect x="4" y="9" width="2" height="1" fill="#555c65"/><rect x="6" y="9" width="1" height="1" fill="#b4bbc2"/><rect x="7" y="9" width="4" height="1" fill="#fffdf4"/><rect x="11" y="9" width="11" height="1" fill="#fffaf0"/><rect x="22" y="9" width="3" height="1" fill="#ece9df"/><rect x="25" y="9" width="1" height="1" fill="#b4bbc2"/><rect x="26" y="9" width="3" height="1" fill="#252931"/><rect x="2" y="10" width="2" height="1" fill="#252931"/><rect x="4" y="10" width="2" height="1" fill="#555c65"/><rect x="6" y="10" width="5" height="1" fill="#fffdf4"/><rect x="11" y="10" width="11" height="1" fill="#fffaf0"/><rect x="22" y="10" width="3" height="1" fill="#ece9df"/><rect x="25" y="10" width="1" height="1" fill="#555c65"/><rect x="26" y="10" width="4" height="1" fill="#252931"/><rect x="2" y="11" width="1" height="1" fill="#252931"/><rect x="3" y="11" width="3" height="1" fill="#555c65"/><rect x="6" y="11" width="1" height="1" fill="#b4bbc2"/><rect x="7" y="11" width="4" height="1" fill="#fffdf4"/><rect x="11" y="11" width="4" height="1" fill="#fffaf0"/><rect x="15" y="11" width="2" height="1" fill="#b4bbc2"/><rect x="17" y="11" width="6" height="1" fill="#fffaf0"/><rect x="23" y="11" width="2" height="1" fill="#ece9df"/><rect x="25" y="11" width="1" height="1" fill="#b4bbc2"/><rect x="26" y="11" width="4" height="1" fill="#252931"/><rect x="2" y="12" width="1" height="1" fill="#252931"/><rect x="3" y="12" width="3" height="1" fill="#555c65"/><rect x="6" y="12" width="1" height="1" fill="#b4bbc2"/><rect x="7" y="12" width="1" height="1" fill="#fffaf0"/><rect x="8" y="12" width="1" height="1" fill="#fffdf4"/><rect x="9" y="12" width="4" height="1" fill="#fffaf0"/><rect x="13" y="12" width="1" height="1" fill="#b4bbc2"/><rect x="14" y="12" width="4" height="1" fill="#555c65"/><rect x="18" y="12" width="1" height="1" fill="#b4bbc2"/><rect x="19" y="12" width="4" height="1" fill="#fffaf0"/><rect x="23" y="12" width="2" height="1" fill="#ece9df"/><rect x="25" y="12" width="1" height="1" fill="#b4bbc2"/><rect x="26" y="12" width="4" height="1" fill="#252931"/><rect x="1" y="13" width="2" height="1" fill="#252931"/><rect x="3" y="13" width="3" height="1" fill="#555c65"/><rect x="6" y="13" width="3" height="1" fill="#b4bbc2"/><rect x="9" y="13" width="3" height="1" fill="#fffaf0"/><rect x="12" y="13" width="1" height="1" fill="#b4bbc2"/><rect x="13" y="13" width="6" height="1" fill="#555c65"/><rect x="19" y="13" width="1" height="1" fill="#b4bbc2"/><rect x="20" y="13" width="3" height="1" fill="#fffaf0"/><rect x="23" y="13" width="3" height="1" fill="#b4bbc2"/><rect x="26" y="13" width="5" height="1" fill="#252931"/><rect x="1" y="14" width="1" height="1" fill="#252931"/><rect x="2" y="14" width="3" height="1" fill="#555c65"/><rect x="5" y="14" width="5" height="1" fill="#fffaf0"/><rect x="10" y="14" width="1" height="1" fill="#b4bbc2"/><rect x="11" y="14" width="10" height="1" fill="#555c65"/><rect x="21" y="14" width="1" height="1" fill="#b4bbc2"/><rect x="22" y="14" width="2" height="1" fill="#fffaf0"/><rect x="24" y="14" width="2" height="1" fill="#ece9df"/><rect x="26" y="14" width="1" height="1" fill="#b4bbc2"/><rect x="27" y="14" width="4" height="1" fill="#252931"/><rect x="1" y="15" width="1" height="1" fill="#252931"/><rect x="2" y="15" width="2" height="1" fill="#555c65"/><rect x="4" y="15" width="1" height="1" fill="#b4bbc2"/><rect x="5" y="15" width="6" height="1" fill="#fffaf0"/><rect x="11" y="15" width="10" height="1" fill="#555c65"/><rect x="21" y="15" width="3" height="1" fill="#fffaf0"/><rect x="24" y="15" width="2" height="1" fill="#ece9df"/><rect x="26" y="15" width="2" height="1" fill="#b4bbc2"/><rect x="28" y="15" width="3" height="1" fill="#252931"/><rect x="1" y="16" width="1" height="1" fill="#252931"/><rect x="2" y="16" width="2" height="1" fill="#b4bbc2"/><rect x="4" y="16" width="7" height="1" fill="#fffaf0"/><rect x="11" y="16" width="1" height="1" fill="#b4bbc2"/><rect x="12" y="16" width="8" height="1" fill="#555c65"/><rect x="20" y="16" width="1" height="1" fill="#b4bbc2"/><rect x="21" y="16" width="3" height="1" fill="#fffaf0"/><rect x="24" y="16" width="2" height="1" fill="#ece9df"/><rect x="26" y="16" width="1" height="1" fill="#b4bbc2"/><rect x="27" y="16" width="1" height="1" fill="#555c65"/><rect x="28" y="16" width="2" height="1" fill="#b4bbc2"/><rect x="30" y="16" width="1" height="1" fill="#252931"/><rect x="1" y="17" width="1" height="1" fill="#252931"/><rect x="2" y="17" width="1" height="1" fill="#fffaf0"/><rect x="3" y="17" width="1" height="1" fill="#b4bbc2"/><rect x="4" y="17" width="8" height="1" fill="#fffaf0"/><rect x="12" y="17" width="8" height="1" fill="#555c65"/><rect x="20" y="17" width="4" height="1" fill="#fffaf0"/><rect x="24" y="17" width="2" height="1" fill="#ece9df"/><rect x="26" y="17" width="1" height="1" fill="#b4bbc2"/><rect x="27" y="17" width="1" height="1" fill="#555c65"/><rect x="28" y="17" width="1" height="1" fill="#b4bbc2"/><rect x="29" y="17" width="1" height="1" fill="#555c65"/><rect x="30" y="17" width="1" height="1" fill="#252931"/><rect x="1" y="18" width="2" height="1" fill="#252931"/><rect x="3" y="18" width="1" height="1" fill="#b4bbc2"/><rect x="4" y="18" width="8" height="1" fill="#fffaf0"/><rect x="12" y="18" width="8" height="1" fill="#555c65"/><rect x="20" y="18" width="4" height="1" fill="#fffaf0"/><rect x="24" y="18" width="2" height="1" fill="#ece9df"/><rect x="26" y="18" width="1" height="1" fill="#b4bbc2"/><rect x="27" y="18" width="1" height="1" fill="#555c65"/><rect x="28" y="18" width="1" height="1" fill="#b4bbc2"/><rect x="29" y="18" width="2" height="1" fill="#252931"/><rect x="2" y="19" width="1" height="1" fill="#252931"/><rect x="3" y="19" width="1" height="1" fill="#b4bbc2"/><rect x="4" y="19" width="8" height="1" fill="#fffaf0"/><rect x="12" y="19" width="1" height="1" fill="#b4bbc2"/><rect x="13" y="19" width="6" height="1" fill="#555c65"/><rect x="19" y="19" width="1" height="1" fill="#b4bbc2"/><rect x="20" y="19" width="3" height="1" fill="#fffaf0"/><rect x="23" y="19" width="3" height="1" fill="#ece9df"/><rect x="26" y="19" width="1" height="1" fill="#b4bbc2"/><rect x="27" y="19" width="1" height="1" fill="#555c65"/><rect x="28" y="19" width="1" height="1" fill="#b4bbc2"/><rect x="29" y="19" width="1" height="1" fill="#252931"/><rect x="2" y="20" width="1" height="1" fill="#252931"/><rect x="3" y="20" width="1" height="1" fill="#fffaf0"/><rect x="4" y="20" width="1" height="1" fill="#b4bbc2"/><rect x="5" y="20" width="7" height="1" fill="#fffaf0"/><rect x="12" y="20" width="1" height="1" fill="#b4bbc2"/><rect x="13" y="20" width="6" height="1" fill="#fffaf0"/><rect x="19" y="20" width="1" height="1" fill="#b4bbc2"/><rect x="20" y="20" width="3" height="1" fill="#fffaf0"/><rect x="23" y="20" width="3" height="1" fill="#ece9df"/><rect x="26" y="20" width="1" height="1" fill="#555c65"/><rect x="27" y="20" width="1" height="1" fill="#b4bbc2"/><rect x="28" y="20" width="1" height="1" fill="#555c65"/><rect x="29" y="20" width="1" height="1" fill="#252931"/><rect x="2" y="21" width="2" height="1" fill="#252931"/><rect x="4" y="21" width="1" height="1" fill="#b4bbc2"/><rect x="5" y="21" width="6" height="1" fill="#fffaf0"/><rect x="11" y="21" width="1" height="1" fill="#b4bbc2"/><rect x="12" y="21" width="8" height="1" fill="#fffaf0"/><rect x="20" y="21" width="1" height="1" fill="#b4bbc2"/><rect x="21" y="21" width="1" height="1" fill="#fffaf0"/><rect x="22" y="21" width="3" height="1" fill="#ece9df"/><rect x="25" y="21" width="2" height="1" fill="#555c65"/><rect x="27" y="21" width="1" height="1" fill="#b4bbc2"/><rect x="28" y="21" width="2" height="1" fill="#252931"/><rect x="3" y="22" width="1" height="1" fill="#252931"/><rect x="4" y="22" width="1" height="1" fill="#fffaf0"/><rect x="5" y="22" width="1" height="1" fill="#555c65"/><rect x="6" y="22" width="1" height="1" fill="#b4bbc2"/><rect x="7" y="22" width="3" height="1" fill="#fffaf0"/><rect x="10" y="22" width="1" height="1" fill="#b4bbc2"/><rect x="11" y="22" width="10" height="1" fill="#fffaf0"/><rect x="21" y="22" width="1" height="1" fill="#b4bbc2"/><rect x="22" y="22" width="3" height="1" fill="#ece9df"/><rect x="25" y="22" width="1" height="1" fill="#b4bbc2"/><rect x="26" y="22" width="1" height="1" fill="#252931"/><rect x="27" y="22" width="1" height="1" fill="#555c65"/><rect x="28" y="22" width="1" height="1" fill="#252931"/><rect x="3" y="23" width="2" height="1" fill="#252931"/><rect x="5" y="23" width="4" height="1" fill="#555c65"/><rect x="9" y="23" width="2" height="1" fill="#b4bbc2"/><rect x="11" y="23" width="10" height="1" fill="#fffaf0"/><rect x="21" y="23" width="2" height="1" fill="#b4bbc2"/><rect x="23" y="23" width="6" height="1" fill="#252931"/><rect x="4" y="24" width="2" height="1" fill="#252931"/><rect x="6" y="24" width="4" height="1" fill="#555c65"/><rect x="10" y="24" width="1" height="1" fill="#b4bbc2"/><rect x="11" y="24" width="8" height="1" fill="#fffaf0"/><rect x="19" y="24" width="2" height="1" fill="#ece9df"/><rect x="21" y="24" width="1" height="1" fill="#b4bbc2"/><rect x="22" y="24" width="6" height="1" fill="#252931"/><rect x="5" y="25" width="3" height="1" fill="#252931"/><rect x="8" y="25" width="3" height="1" fill="#555c65"/><rect x="11" y="25" width="1" height="1" fill="#b4bbc2"/><rect x="12" y="25" width="5" height="1" fill="#fffaf0"/><rect x="17" y="25" width="3" height="1" fill="#ece9df"/><rect x="20" y="25" width="1" height="1" fill="#b4bbc2"/><rect x="21" y="25" width="6" height="1" fill="#252931"/><rect x="6" y="26" width="6" height="1" fill="#252931"/><rect x="12" y="26" width="1" height="1" fill="#b4bbc2"/><rect x="13" y="26" width="6" height="1" fill="#ece9df"/><rect x="19" y="26" width="1" height="1" fill="#b4bbc2"/><rect x="20" y="26" width="6" height="1" fill="#252931"/><rect x="8" y="27" width="5" height="1" fill="#252931"/><rect x="13" y="27" width="6" height="1" fill="#b4bbc2"/><rect x="19" y="27" width="5" height="1" fill="#252931"/><rect x="10" y="28" width="4" height="1" fill="#252931"/><rect x="14" y="28" width="2" height="1" fill="#ece9df"/><rect x="16" y="28" width="2" height="1" fill="#b4bbc2"/><rect x="18" y="28" width="4" height="1" fill="#252931"/><rect x="13" y="29" width="6" height="1" fill="#252931"/></svg>