<svg xmlns="http://www.w3.org/2000/svg" width="32" height="32" viewBox="0 0 32 32" shape-rendering="crispEdges"><rect x="13" y="2" width="6" height="1" fill="#101020"/><rect x="10" y="3" width="4" height="1" fill="#101020"/><rect x="14" y="3" width="2" height="1" fill="#46415f"/><rect x="16" y="3" width="2" height="1" fill="#302b47"/><rect x="18" y="3" width="4" height="1" fill="#101020"/><rect x="8" y="4" width="2" height="1" fill="#101020"/><rect x="10" y="4" width="9" height="1" fill="#46415f"/><rect x="19" y="4" width="2" height="1" fill="#302b47"/><rect x="21" y="4" width="1" height="1" fill="#211e34"/><rect x="22" y="4" width="2" height="1" fill="#101020"/><rect x="6" y="5" width="2" height="1" fill="#101020"/><rect x="8" y="5" width="5" height="1" fill="#ddcbf3"/><rect x="13" y="5" width="8" height="1" fill="#46415f"/><rect x="21" y="5" width="3" height="1" fill="#211e34"/><rect x="24" y="5" width="2" height="1" fill="#101020"/><rect x="5" y="6" width="2" height="1" fill="#101020"/><rect x="7" y="6" width="6" height="1" fill="#9382b7"/><rect x="13" y="6" width="1" height="1" fill="#ddcbf3"/><rect x="14" y="6" width="3" height="1" fill="#9382b7"/><rect x="17" y="6" width="5" height="1" fill="#46415f"/><rect x="22" y="6" width="3" height="1" fill="#211e34"/><rect x="25" y="6" width="2" height="1" fill="#101020"/><rect x="4" y="7" width="2" height="1" fill="#101020"/><rect x="6" y="7" width="8" height="1" fill="#9382b7"/><rect x="14" y="7" width="1" height="1" fill="#ddcbf3"/><rect x="15" y="7" width="4" height="1" fill="#9382b7"/><rect x="19" y="7" width="4" height="1" fill="#46415f"/><rect x="23" y="7" width="3" height="1" fill="#211e34"/><rect x="26" y="7" width="2" height="1" fill="#101020"/><rect x="3" y="8" width="2" height="1" fill="#101020"/><rect x="5" y="8" width="10" height="1" fill="#9382b7"/><rect x="15" y="8" width="1" height="1" fill="#ddcbf3"/><rect x="16" y="8" width="5" height="1" fill="#9382b7"/><rect x="21" y="8" width="3" height="1" fill="#46415f"/><rect x="24" y="8" width="3" height="1" fill="#211e34"/><rect x="27" y="8" width="2" height="1" fill="#101020"/><rect x="3" y="9" width="1" height="1" fill="#101020"/><rect x="4" y="9" width="3" height="1" fill="#9382b7"/><rect x="7" y="9" width="3" height="1" fill="#ddcbf3"/><rect x="10" y="9" width="6" height="1" fill="#9382b7"/><rect x="16" y="9" width="1" height="1" fill="#ddcbf3"/><rect x="17" y="9" width="5" height="1" fill="#9382b7"/><rect x="22" y="9" width="3" height="1" fill="#46415f"/><rect x="25" y="9" width="3" height="1" fill="#211e34"/><rect x="28" y="9" width="1" height="1" fill="#101020"/><rect x="2" y="10" width="2" height="1" fill="#101020"/><rect x="4" y="10" width="2" height="1" fill="#9382b7"/><rect x="6" y="10" width="5" height="1" fill="#ddcbf3"/><rect x="11" y="10" width="6" height="1" fill="#9382b7"/><rect x="17" y="10" width="1" height="1" fill="#ddcbf3"/><rect x="18" y="10" width="4" height="1" fill="#9382b7"/><rect x="22" y="10" width="3" height="1" fill="#46415f"/><rect x="25" y="10" width="3" height="1" fill="#211e34"/><rect x="28" y="10" width="2" height="1" fill="#101020"/><rect x="2" y="11" width="1" height="1" fill="#101020"/><rect x="3" y="11" width="4" height="1" fill="#9382b7"/><rect x="7" y="11" width="4" height="1" fill="#ddcbf3"/><rect x="11" y="11" width="7" height="1" fill="#9382b7"/><rect x="18" y="11" width="1" height="1" fill="#ddcbf3"/><rect x="19" y="11" width="4" height="1" fill="#9382b7"/><rect x="23" y="11" width="3" height="1" fill="#46415f"/><rect x="26" y="11" width="3" height="1" fill="#211e34"/><rect x="29" y="11" width="1" height="1" fill="#101020"/><rect x="2" y="12" width="1" height="1" fill="#101020"/><rect x="3" y="12" width="5" height="1" fill="#9382b7"/><rect x="8" y="12" width="1" height="1" fill="#ddcbf3"/><rect x="9" y="12" width="10" height="1" fill="#9382b7"/><rect x="19" y="12" width="1" height="1" fill="#ddcbf3"/><rect x="20" y="12" width="3" height="1" fill="#9382b7"/><rect x="23" y="12" width="3" height="1" fill="#46415f"/><rect x="26" y="12" width="1" height="1" fill="#302b47"/><rect x="27" y="12" width="2" height="1" fill="#211e34"/><rect x="29" y="12" width="1" height="1" fill="#101020"/><rect x="1" y="13" width="2" height="1" fill="#101020"/><rect x="3" y="13" width="17" height="1" fill="#9382b7"/><rect x="20" y="13" width="1" height="1" fill="#ddcbf3"/><rect x="21" y="13" width="3" height="1" fill="#9382b7"/><rect x="24" y="13" width="2" height="1" fill="#46415f"/><rect x="26" y="13" width="1" height="1" fill="#302b47"/><rect x="27" y="13" width="2" height="1" fill="#211e34"/><rect x="29" y="13" width="2" height="1" fill="#101020"/><rect x="1" y="14" width="1" height="1" fill="#101020"/><rect x="2" y="14" width="22" height="1" fill="#9382b7"/><rect x="24" y="14" width="2" height="1" fill="#46415f"/><rect x="26" y="14" width="1" height="1" fill="#302b47"/><rect x="27" y="14" width="3" height="1" fill="#211e34"/><rect x="30" y="14" width="1" height="1" fill="#101020"/><rect x="1" y="15" width="1" height="1" fill="#101020"/><rect x="2" y="15" width="10" height="1" fill="#9382b7"/><rect x="12" y="15" width="2" height="1" fill="#ddcbf3"/><rect x="14" y="15" width="10" height="1" fill="#9382b7"/><rect x="24" y="15" width="2" height="1" fill="#46415f"/><rect x="26" y="15" width="1" height="1" fill="#302b47"/><rect x="27" y="15" width="3" height="1" fill="#211e34"/><rect x="30" y="15" width="1" height="1" fill="#101020"/><rect x="1" y="16" width="1" height="1" fill="#101020"/><rect x="2" y="16" width="13" height="1" fill="#9382b7"/><rect x="15" y="16" width="3" height="1" fill="#ddcbf3"/><rect x="18" y="16" width="6" height="1" fill="#9382b7"/><rect x="24" y="16" width="2" height="1" fill="#46415f"/><rect x="26" y="16" width="1" height="1" fill="#302b47"/><rect x="27" y="16" width="3" height="1" fill="#211e34"/><rect x="30" y="16" width="1" height="1" fill="#101020"/><rect x="1" y="17" width="1" height="1" fill="#101020"/><rect x="2" y="17" width="16" height="1" fill="#9382b7"/><rect x="18" y="17" width="3" height="1" fill="#ddcbf3"/><rect x="21" y="17" width="3" height="1" fill="#9382b7"/><rect x="24" y="17" width="2" height="1" fill="#46415f"/><rect x="26" y="17" width="1" height="1" fill="#302b47"/><rect x="27" y="17" width="3" height="1" fill="#211e34"/><rect x="30" y="17" width="1" height="1" fill="#101020"/><rect x="1" y="18" width="2" height="1" fill="#101020"/><rect x="3" y="18" width="19" height="1" fill="#9382b7"/><rect x="22" y="18" width="2" height="1" fill="#ddcbf3"/><rect x="24" y="18" width="2" height="1" fill="#46415f"/><rect x="26" y="18" width="1" height="1" fill="#302b47"/><rect x="27" y="18" width="2" height="1" fill="#211e34"/><rect x="29" y="18" width="2" height="1" fill="#101020"/><rect x="2" y="19" width="1" height="1" fill="#101020"/><rect x="3" y="19" width="21" height="1" fill="#9382b7"/><rect x="24" y="19" width="1" height="1" fill="#ddcbf3"/><rect x="25" y="19" width="1" height="1" fill="#46415f"/><rect x="26" y="19" width="1" height="1" fill="#302b47"/><rect x="27" y="19" width="2" height="1" fill="#211e34"/><rect x="29" y="19" width="1" height="1" fill="#101020"/><rect x="2" y="20" width="1" height="1" fill="#101020"/><rect x="3" y="20" width="22" height="1" fill="#9382b7"/><rect x="25" y="20" width="1" height="1" fill="#ddcbf3"/><rect x="26" y="20" width="3" height="1" fill="#211e34"/><rect x="29" y="20" width="1" height="1" fill="#101020"/><rect x="2" y="21" width="2" height="1" fill="#101020"/><rect x="4" y="21" width="22" height="1" fill="#9382b7"/><rect x="26" y="21" width="2" height="1" fill="#211e34"/><rect x="28" y="21" width="2" height="1" fill="#101020"/><rect x="3" y="22" width="1" height="1" fill="#101020"/><rect x="4" y="22" width="22" height="1" fill="#9382b7"/><rect x="26" y="22" width="1" height="1" fill="#ddcbf3"/><rect x="27" y="22" width="1" height="1" fill="#211e34"/><rect x="28" y="22" width="1" height="1" fill="#101020"/><rect x="3" y="23" width="2" height="1" fill="#101020"/><rect x="5" y="23" width="16" height="1" fill="#9382b7"/><rect x="21" y="23" width="2" height="1" fill="#46415f"/><rect x="23" y="23" width="4" height="1" fill="#9382b7"/><rect x="27" y="23" width="2" height="1" fill="#101020"/><rect x="4" y="24" width="2" height="1" fill="#101020"/><rect x="6" y="24" width="13" height="1" fill="#9382b7"/><rect x="19" y="24" width="4" height="1" fill="#46415f"/><rect x="23" y="24" width="1" height="1" fill="#211e34"/><rect x="24" y="24" width="2" height="1" fill="#9382b7"/><rect x="26" y="24" width="2" height="1" fill="#101020"/><rect x="5" y="25" width="2" height="1" fill="#101020"/><rect x="7" y="25" width="1" height="1" fill="#46415f"/><rect x="8" y="25" width="9" height="1" fill="#9382b7"/><rect x="17" y="25" width="5" height="1" fill="#46415f"/><rect x="22" y="25" width="3" height="1" fill="#211e34"/><rect x="25" y="25" width="2" height="1" fill="#101020"/><rect x="6" y="26" width="2" height="1" fill="#101020"/><rect x="8" y="26" width="13" height="1" fill="#46415f"/><rect x="21" y="26" width="3" height="1" fill="#211e34"/><rect x="24" y="26" width="2" height="1" fill="#101020"/><rect x="8" y="27" width="2" height="1" fill="#101020"/><rect x="10" y="27" width="9" height="1" fill="#46415f"/><rect x="19" y="27" width="2" height="1" fill="#302b47"/><rect x="21" y="27" width="1" height="1" fill="#211e34"/><rect x="22" y="27" width="2" height="1" fill="#101020"/><rect x="10" y="28" width="4" height="1" fill="#101020"/><rect x="14" y="28" width="2" height="1" fill="#46415f"/><rect x="16" y="28" width="2" height="1" fill="#302b47"/><rect x="18" y="28" width="4" height="1" fill="#101020"/><rect x="13" y="29" width="6" height="1" fill="#101020"/></svg>